/* XPM */
static char *bitcoin64[] = {
/* columns rows colors chars-per-pixel */
"64 64 81 1 ",
"  c #005B00",
". c #006500",
"X c #006B00",
"o c #007300",
"O c #007F00",
"+ c #0B720B",
"@ c #0B7B0B",
"# c #137D13",
"$ c #018101",
"% c #0D840D",
"& c #118611",
"* c #148914",
"= c #198219",
"- c #1B8B1B",
"; c #1F901F",
": c #238523",
"> c #238D23",
", c #2E8B2E",
"< c #239023",
"1 c #2A932A",
"2 c #339433",
"3 c #349B34",
"4 c #3B963B",
"5 c #3D9A3D",
"6 c #3EA13E",
"7 c #419D41",
"8 c #4B9E4B",
"9 c #539553",
"0 c #529E52",
"q c #44A244",
"w c #4DA44D",
"e c #4FAB4F",
"r c #54A254",
"t c #54AB54",
"y c #59A459",
"u c #5EAC5E",
"i c #5CB05C",
"p c #61AA61",
"a c #6AAD6A",
"s c #65B165",
"d c #6AB46A",
"f c #70AF70",
"g c #72B472",
"h c #76BA76",
"j c #79B579",
"k c #7DBA7D",
"l c #7EC27E",
"z c #84BD84",
"x c #8ABD8A",
"c c #84C184",
"v c #8BC38B",
"b c #94C494",
"n c #95CB95",
"m c #9AC79A",
"M c #9CCC9C",
"N c #A2CBA2",
"B c #AACDAA",
"V c #A4D1A4",
"C c #ABD3AB",
"Z c #ABD9AB",
"A c #B4D4B4",
"S c #B5DAB5",
"D c #BED6BE",
"F c #BBDBBB",
"G c #BCE2BC",
"H c #C2DCC2",
"J c #CCDECC",
"K c #C2E2C2",
"L c #CCE4CC",
"P c #CDE9CD",
"I c #D3E6D3",
"U c #D3E8D3",
"Y c #DBECDB",
"T c #DEF0DE",
"R c #E3EEE3",
"E c #E4F2E4",
"W c #EBF3EB",
"Q c #EBF9EB",
"! c #F0F2F0",
"~ c #F4FAF4",
"^ c #FFFFFF",
/* pixels */
"^^^^^^^^^^^^^^^^^^^^^^^^^^^^^^^^^^^^^k#&8m^^^^^^^^^^^^^^^^^^^^^^",
"^^^^^^^^^^^^^^^^^^^^^^^^^^^^^^^^^^^^^&XOX.:G^^^^^^^^^^^^^^^^^^^^",
"^^^^^^^^^^^^^^^^^^^^^^^^^^^^^^^^^^^^^-oOO$XXK^^^^^^^^^^^^^^^^^^^",
"^^^^^^^^^^^^^^^^^^^^^^^^^^^^^^^^^^^^W$o$OO$X$~^^^^^^^^^^^^^^^^^^",
"^^^^^^^^^^^^^^^^^^^^^^^^^^^^^^^^^^^^Uoo$OOO$.c^^^^^^^^^^^^^^^^^^",
"^^^^^^^^^^^^^^^^^^^^^^^^^^^^^^^^^^^^So$$OO$$X<^^^^^^^^^^^^^^^^^^",
"^^^^^^^^^^^^^^^^^^^^^^^^^^^^^^^^^^^^vX$OO$$$oOE^^^^^^^^^^^^^^^^^",
"^^^^^^^^^^^^^^^^^^^^^^^^^^^^^^^^^^^^s.$OOO$$ooF^^^^^^^^^^^^^^^^^",
"^^^^^^^^^^^^^^^^^^^^^^^^^^^^^^^^^^^^1o$OOO$OOXC^^^^^^^^^^^^^^^^^",
"^^^^^^^^^^^^^^^^^^^^^^^^^^^^^^^^^^^WOoO$OOOOOXV^^^^^^^^^^^^^^^^^",
"^^^^^^^^^^^^^^^^^^^^^^^^^^^^^^^^^^^M.$O$OOO$OoF^^^^^^^^^^^^^^^^^",
"^^^^^^^^^^^^^^^^^^^^^^^^^^^^^^^^^^^3XOOO$OOOOoE^^^^^^^^^^^^^^^^^",
"^^^^^^^^^^^^^^^^^^^^^^^^^^^^^^^^^^PXOOOOOO$$o-^^^^^^^^^^^^^^^^^^",
"^^^^^^^^^^^^^^^^^^^^^^^^^^^^^^^^^^1X$OO$OO$$.d^^^^^^^^^^^^^^^^^^",
"^^^^^^^^^^^^^^^^^^^^^^^^^^^^^^^^^d.$OOOOOOOooU^^^^^^^^^^^^^^^^^^",
"^^^^^^^^^^^^^^^^^^^^^^^^^^^^^^^^g.OOOOOO$O$.q^^^^^^^^^^^^^^^^^^^",
"^^^^^^^^^^^^^^^^^^^^^^^^^^^^^^Q7.o$OOOOOOOooU^^^^^^^^^^^^^^^^^^^",
"^^^^^^^^^^^^^^^^^^^^^^^^^^^^^P=.$$OOO$OO$$Xt^^^^^^^^^^^^^^^^^^^^",
"^^^^^^^^^^^^^^^^^^^^^^^^^^^^YoX$$$O$OO$OOooE^^^^^^^^^^^^^^^^^^^^",
"^^^^^^^^^^^^^^^^^^^^^^^^^^^^;.$$OOOOO$OO$.t^^^^^^^^^^^^^^^^^^^^^",
"^^^^^^^^^^^^^^^^^^^^^^^^^^^C.OOO$OOOOOOOOoY^^^^^^^^^^^^^^^^^^^^^",
"^^^^^^^^^^^^^^^^^^^^^^^^^^^3X$OOOOO$OO$OX3^^^^^^^^^^^^^^^^^^^^^^",
"^^^^^^^^^^^^^^^^^^^^^^^^^^UXo$O$OOOOO$OO.n^^^^^^^^^^^^^^^^^^^^^^",
"^^^^^^^^^^^^^^^^^^^^^^^^^^e.$$OOOO$OOOOOoL^^^^^^^^^^^^^^^^^^^^^^",
"^^^^^^^^^^^^^^^^^^^^^^^^^EooOOOOO$OOOOOooW^^^^^^^^^^^^^^^^^^^^^^",
"^^^^^^^^^^^^^^^^^^^^^^^^^i.$O$$OOOO$O$$$orchhdddssdddhzvMSU^^^^^",
"^^^^^^^^^^^^^^^^^^^^^^^^Eoo$OO$OO$OOOO$O$o.XX.XXX.XXX.XXXXo,S^^^",
"^^^^^^^^^^^^^^^^^^^^^^^^e.$$OOOOOOOOOO$OO$OOOOOOOOOOO$OOOOO.XV^^",
"^^^^^^^^^^^^^^^^^^^^^^^PXOOOO$OOOOOO$OOOOOOOOOOO$OOOOO$OOO$$oXL^",
"^^^^^^^^^^^^^^^^^^^^^^^<X$OOOOO$OO$OOOO$O$$OOO$OOOO$OOOO$OOO$X*^",
"^^^^^^^^^^^^^^^^^^^^^^l.OOO$O$OOO$OOOOOOOO$O$OOOOOOO$OOOOOOOOO n",
"^^^^^^^^^^^^^^^^^^^^^KXo$OOOOOOOOO$OO$OOOOOOOO$OOO$OOOO$OO$OO$o<",
"^^^^^^^^^^^^^^^^^^^^YOX$OO$OOOOOOO$OO$OO$OOO$OOOOOOOO$OOO$OOO$O@",
"^bwwwwwwww8aE^^^^^^F@X$OOOOO$OOOO$OOOOOOOOOOOOOO$O$OOOOOOOO$O$.h",
"h .XXXXXXXX &W^^Mvtoo$OO$OOOOOOOOO$OOOO$OO$$OOO$OOOO$OOOO$OO$X2^",
"%o$$OOOOOOOO.n^^O Xo$O$OOO$OOOOOOOOO$OOOO$O$O$OOO$OOOOOOOOOOo=!^",
"&$OOOOOOOOOOXn^^<oOOOO$OOOOOOOOO$$OOOO$OOoOoOOOOo$OoOoOOOOOOX6^^",
"&OOOO$$OO$OOXn^^<XOOOOOOO$$o.XoO$oXXo$O%oo%O$Ooo&O$-O&&o$$OOo@E^",
"&OOOOO$OOOOOXn^^<oOO$OOOOOoicbN=opNSb2XwHKJ2ozFIb4ofELy@OOOOOX6^",
"&O$OOOOOOOOOXn^^<oOOOOOOOOo5^^B-X1^~f,o+U^B-X<^^m-XO^H>@OOOOOO.C",
"&O$OO$OOOO$OXn^^<XO$OO$OOOOoE^4O.jW,oo$Xn^goo&H^W2OXBbOoOOOOO$o&",
"&OOOOOOOOOOOXn^^<oOOOOOOOOooW^y.7!8oo$$XN^zOo3vD^N$XCzO$OOOO$$o&",
"&O$OOOO$OOOOXn^^<X$OOOOOOOOoU^<=~boo$O$.v^zOX1V5~^4oMNOoOO$OOoXL",
"&OOO$OOOOOOOXn^^<o$OOOO$OOOoI~5E^A&o$OOXz^xOo<FOa^BozNOOOOO$oXZ^",
"&OO$OO$OOO$OXn^^<o$O$OO$OOOXK~UCE^goo$O.c^xOX1F<X^^1NmOOOO$$Xc^^",
"&OOOOOOOOOOOXn^^<oOOOOOOOOOoF^Ho5^U=o$$.c^v$o1F3 s^bNbOoO$OoO~^^",
"&OOOOOOO$OOOXn^^<XOOOOOOO$ooU^7oXT^joo$Xc^z$o-HwoXW~Ax$OOOOOXS^^",
"&OO$OOO$OOOOXn^^<o$OOO$O$$$XK^7O.5^W&o$.d^koX&Rro.w^^jOoO$O$Xq^^",
"&OOOOOOOOOOOXn^^<oO$OOOO$Oo@W^boXXW^H>X+H^I% v^AOXXT^koOOOOOooY^",
"&$$OOO$OO$OOXn^^<XOOOOOOOOosUUJg+7LJYB9wACDx0CCAx>.2Az&oO$OO$.g^",
"&OOOO$O$OO$OXn^^<oOOOOOOOOo<<<4a&%5>:7s<@%&53&%&w;oo=<$OO$O$$ h^",
"&OOOOOOOOOOOXn^^<oOO$OO$O$$OOoooOOoooooooooooooooO$$ooO$OOO$X*W^",
"&OOO$OOO$OOOXn^^<oOOOOOOOOOOOO$OOO$OOO$O$$O$OOOOOOOOO$OO$$$X#T^^",
"*OOOOOO$OOOOXn^^<oOOO$OOO$$O$OOOOOOOOOOO$$OOOO$OOOOOOOO$$$X=E^^^",
"&OO$OOOOOOOOXn^^<XOOO$$OO$OOOO$OOOO$$OO$OOOOO$$OOOO$O$OOOo@E^^^^",
"&OOOO$OOOOOOXn^^<o$OOOOOOOOOOOOO$OOOOOOOOO$OOOOOOOOOOOOO$Xt^^^^^",
"&OOOOO$O$OOOXn^^<oOOO$OO$OOOO$OOOOOO$OOOO$OO$OOOOOOOOOOOOXt^^^^^",
"&O$OOOOOOOOOXn^^<XOOOOO$OOO$OOOOOOOOOOO$OOOOOOO$O$OOOO$OOX5^^^^^",
"&O$O$OOOOOOOXn^^<oO$O$OOOOOOOOO$OOOOOOOOOOOOOOOOOOO$O$OO$.t^^^^^",
"&$OOOO$O$OOOXn^^%.OOOOOO$OOOO$OO$OO$OO$O$OOOO$OOO$OOOOO$XoT^^^^^",
"%oOO$$OOOOOO.m^^qooX.XoOOOOO$$OOOOOOOOOO$OO$OOOOOO$O$$$XXG^^^^^^",
"h .XXXXXXXX &W^^^WKmdq-oXXXXoOOO$OOO$O$O$$OO$OOOOOOO$o.#K^^^^^^^",
"^bwwwwwwwwqaE^^^^^^^^^^UScu2&oXXX.XXXooooOoOOO$OooXX.oyQ^^^^^^^^",
"^^^^^^^^^^^^^^^^^^^^^^^^^^^^!IZMvhfie531<;**&&*-<2wdbU^^^^^^^^^^"
};
