/* XPM */
static char *bitcoin128[] = {
/* columns rows colors chars-per-pixel */
"128 128 89 1 ",
"  c #005C00",
". c #006500",
"X c #006C00",
"o c #007300",
"O c #007F00",
"+ c #0A7D0A",
"@ c #127D12",
"# c #008000",
"$ c #0C840C",
"% c #128512",
"& c #148914",
"* c #1D861D",
"= c #1C8C1C",
"- c #228522",
"; c #238C23",
": c #2B8D2B",
"> c #249124",
", c #2C942C",
"< c #2E992E",
"1 c #339433",
"2 c #349A34",
"3 c #3C963C",
"4 c #399B39",
"5 c #3EA13E",
"6 c #409740",
"7 c #439B43",
"8 c #4B9D4B",
"9 c #529F52",
"0 c #45A145",
"q c #4CA44C",
"w c #54A454",
"e c #54AB54",
"r c #5CA55C",
"t c #5CAB5C",
"y c #5FB15F",
"u c #62A762",
"i c #64AB64",
"p c #6AA66A",
"a c #6BAC6B",
"s c #64B264",
"d c #6BB26B",
"f c #6EB86E",
"g c #73AE73",
"h c #79AD79",
"j c #74B474",
"k c #75BA75",
"l c #7BB57B",
"z c #7CBC7C",
"x c #7FC27F",
"c c #80B680",
"v c #82BC82",
"b c #8BBC8B",
"n c #93BE93",
"m c #83C183",
"M c #8DC48D",
"N c #8FC98F",
"B c #92C492",
"V c #93C993",
"C c #9AC49A",
"Z c #9BCB9B",
"A c #9FD09F",
"S c #A2C7A2",
"D c #A2CEA2",
"F c #ABCEAB",
"G c #A4D2A4",
"H c #ACD3AC",
"J c #B0CBB0",
"K c #B5D4B5",
"L c #B6DAB6",
"P c #B8D3B8",
"I c #BBDCBB",
"U c #C3DDC3",
"Y c #C8DDC8",
"T c #C5E1C5",
"R c #CCE5CC",
"E c #CEE8CE",
"W c #D1E7D1",
"Q c #D4EAD4",
"! c #DEE5DE",
"~ c #DBECDB",
"^ c #E1E3E1",
"/ c #E5ECE5",
"( c #E3F2E3",
") c #ECF5EC",
"_ c #EEFAEE",
"` c #F2F6F2",
"' c #F4F9F4",
"] c #FAF1FA",
"[ c #FFFFFF",
/* pixels */
"[[[[[[[[[[[[[[[[[[[[[[[[[[[[[[[[[[[[[[[[[[[[[[[[[[[[[[[[[[[[[[[[[[[[[[[[[[)j>%&<iZ([[[[[[[[[[[[[[[[[[[[[[[[[[[[[[[[[[[[[[[[[[[[[",
"[[[[[[[[[[[[[[[[[[[[[[[[[[[[[[[[[[[[[[[[[[[[[[[[[[[[[[[[[[[[[[[[[[[[[[[[[[d.o##oXX$tE[[[[[[[[[[[[[[[[[[[[[[[[[[[[[[[[[[[[[[[[[[[",
"[[[[[[[[[[[[[[[[[[[[[[[[[[[[[[[[[[[[[[[[[[[[[[[[[[[[[[[[[[[[[[[[[[[[[[[[[[qXO###OOoXok[[[[[[[[[[[[[[[[[[[[[[[[[[[[[[[[[[[[[[[[[[",
"[[[[[[[[[[[[[[[[[[[[[[[[[[[[[[[[[[[[[[[[[[[[[[[[[[[[[[[[[[[[[[[[[[[[[[[[[[0XO###O###oX1([[[[[[[[[[[[[[[[[[[[[[[[[[[[[[[[[[[[[[[[",
"[[[[[[[[[[[[[[[[[[[[[[[[[[[[[[[[[[[[[[[[[[[[[[[[[[[[[[[[[[[[[[[[[[[[[[[[[[<oOOOOO#OO#O.*([[[[[[[[[[[[[[[[[[[[[[[[[[[[[[[[[[[[[[[",
"[[[[[[[[[[[[[[[[[[[[[[[[[[[[[[[[[[[[[[[[[[[[[[[[[[[[[[[[[[[[[[[[[[[[[[[[[[>oOOOOOOOOOO#X;'[[[[[[[[[[[[[[[[[[[[[[[[[[[[[[[[[[[[[[",
"[[[[[[[[[[[[[[[[[[[[[[[[[[[[[[[[[[[[[[[[[[[[[[[[[[[[[[[[[[[[[[[[[[[[[[[[[($oO#OOOOOOO#O#.e[[[[[[[[[[[[[[[[[[[[[[[[[[[[[[[[[[[[[[",
"[[[[[[[[[[[[[[[[[[[[[[[[[[[[[[[[[[[[[[[[[[[[[[[[[[[[[[[[[[[[[[[[[[[[[[[[[W#oOOOOO#OOOOOOooT[[[[[[[[[[[[[[[[[[[[[[[[[[[[[[[[[[[[[",
"[[[[[[[[[[[[[[[[[[[[[[[[[[[[[[[[[[[[[[[[[[[[[[[[[[[[[[[[[[[[[[[[[[[[[[[[[Ioo####OOO#OOOOOX2[[[[[[[[[[[[[[[[[[[[[[[[[[[[[[[[[[[[[",
"[[[[[[[[[[[[[[[[[[[[[[[[[[[[[[[[[[[[[[[[[[[[[[[[[[[[[[[[[[[[[[[[[[[[[[[[[DoO##OOO#OOOO#OOOoW[[[[[[[[[[[[[[[[[[[[[[[[[[[[[[[[[[[[",
"[[[[[[[[[[[[[[[[[[[[[[[[[[[[[[[[[[[[[[[[[[[[[[[[[[[[[[[[[[[[[[[[[[[[[[[[[zX#OOO#OOO#OOOOOO.k[[[[[[[[[[[[[[[[[[[[[[[[[[[[[[[[[[[[",
"[[[[[[[[[[[[[[[[[[[[[[[[[[[[[[[[[[[[[[[[[[[[[[[[[[[[[[[[[[[[[[[[[[[[[[[[[tX#OOOOOOOOO#OOOOo<[[[[[[[[[[[[[[[[[[[[[[[[[[[[[[[[[[[[",
"[[[[[[[[[[[[[[[[[[[[[[[[[[[[[[[[[[[[[[[[[[[[[[[[[[[[[[[[[[[[[[[[[[[[[[[[[5o##OOO#OOOOOO#OOo#([[[[[[[[[[[[[[[[[[[[[[[[[[[[[[[[[[[",
"[[[[[[[[[[[[[[[[[[[[[[[[[[[[[[[[[[[[[[[[[[[[[[[[[[[[[[[[[[[[[[[[[[[[[[[['%o#OO#OOOOOOOOOOOOoL[[[[[[[[[[[[[[[[[[[[[[[[[[[[[[[[[[[",
"[[[[[[[[[[[[[[[[[[[[[[[[[[[[[[[[[[[[[[[[[[[[[[[[[[[[[[[[[[[[[[[[[[[[[[[[WOo##OOOOOOO#OOO#O#XV[[[[[[[[[[[[[[[[[[[[[[[[[[[[[[[[[[[",
"[[[[[[[[[[[[[[[[[[[[[[[[[[[[[[[[[[[[[[[[[[[[[[[[[[[[[[[[[[[[[[[[[[[[[[[[DoOOOOOOOO#OOOOOOO#Xz[[[[[[[[[[[[[[[[[[[[[[[[[[[[[[[[[[[",
"[[[[[[[[[[[[[[[[[[[[[[[[[[[[[[[[[[[[[[[[[[[[[[[[[[[[[[[[[[[[[[[[[[[[[[[[fX#OOOOOO#O#OOOOOOOXs[[[[[[[[[[[[[[[[[[[[[[[[[[[[[[[[[[[",
"[[[[[[[[[[[[[[[[[[[[[[[[[[[[[[[[[[[[[[[[[[[[[[[[[[[[[[[[[[[[[[[[[[[[[[[[5oOOO#OOOOOOOOO#OO#Xt[[[[[[[[[[[[[[[[[[[[[[[[[[[[[[[[[[[",
"[[[[[[[[[[[[[[[[[[[[[[[[[[[[[[[[[[[[[[[[[[[[[[[[[[[[[[[[[[[[[[[[[[[[[[[)#oO#OOOOOO#OO#OO#O#Xs[[[[[[[[[[[[[[[[[[[[[[[[[[[[[[[[[[[",
"[[[[[[[[[[[[[[[[[[[[[[[[[[[[[[[[[[[[[[[[[[[[[[[[[[[[[[[[[[[[[[[[[[[[[[[HXOOOOOO#OOOOOOOOOOOXs[[[[[[[[[[[[[[[[[[[[[[[[[[[[[[[[[[[",
"[[[[[[[[[[[[[[[[[[[[[[[[[[[[[[[[[[[[[[[[[[[[[[[[[[[[[[[[[[[[[[[[[[[[[[[tX#OOOOOOO#OOOO#OOOOXz[[[[[[[[[[[[[[[[[[[[[[[[[[[[[[[[[[[",
"[[[[[[[[[[[[[[[[[[[[[[[[[[[[[[[[[[[[[[[[[[[[[[[[[[[[[[[[[[[[[[[[[[[[[['%oOOOO#OOOOOOOOOO##OXZ[[[[[[[[[[[[[[[[[[[[[[[[[[[[[[[[[[[",
"[[[[[[[[[[[[[[[[[[[[[[[[[[[[[[[[[[[[[[[[[[[[[[[[[[[[[[[[[[[[[[[[[[[[[[HoOOOOOOOOOO#OOOOO##OoL[[[[[[[[[[[[[[[[[[[[[[[[[[[[[[[[[[[",
"[[[[[[[[[[[[[[[[[[[[[[[[[[[[[[[[[[[[[[[[[[[[[[[[[[[[[[[[[[[[[[[[[[[[[[5X#OOO#O#OOOOOOO#O##o#~[[[[[[[[[[[[[[[[[[[[[[[[[[[[[[[[[[[",
"[[[[[[[[[[[[[[[[[[[[[[[[[[[[[[[[[[[[[[[[[[[[[[[[[[[[[[[[[[[[[[[[[[[[[EoOOOOO#OOO#OOOOO#OO#o>[[[[[[[[[[[[[[[[[[[[[[[[[[[[[[[[[[[[",
"[[[[[[[[[[[[[[[[[[[[[[[[[[[[[[[[[[[[[[[[[[[[[[[[[[[[[[[[[[[[[[[[[[[[[5X#OOOOOOOOOO#OOOOOOOXs[[[[[[[[[[[[[[[[[[[[[[[[[[[[[[[[[[[[",
"[[[[[[[[[[[[[[[[[[[[[[[[[[[[[[[[[[[[[[[[[[[[[[[[[[[[[[[[[[[[[[[[[[[[IXOOOOOOOOOO#OOOOOOO##XH[[[[[[[[[[[[[[[[[[[[[[[[[[[[[[[[[[[[",
"[[[[[[[[[[[[[[[[[[[[[[[[[[[[[[[[[[[[[[[[[[[[[[[[[[[[[[[[[[[[[[[[[[['%oOOOOOOOO#OOOOO#OO##o%'[[[[[[[[[[[[[[[[[[[[[[[[[[[[[[[[[[[[",
"[[[[[[[[[[[[[[[[[[[[[[[[[[[[[[[[[[[[[[[[[[[[[[[[[[[[[[[[[[[[[[[[[[[qXOOO#O#OOOOOOOOOOO###Xs[[[[[[[[[[[[[[[[[[[[[[[[[[[[[[[[[[[[[",
"[[[[[[[[[[[[[[[[[[[[[[[[[[[[[[[[[[[[[[[[[[[[[[[[[[[[[[[[[[[[[[[[[[kXOOOOOOOOOOO#OOO##O##oo~[[[[[[[[[[[[[[[[[[[[[[[[[[[[[[[[[[[[[",
"[[[[[[[[[[[[[[[[[[[[[[[[[[[[[[[[[[[[[[[[[[[[[[[[[[[[[[[[[[[[[[[[[jXOOOOOO#OOOOOOOOOOOOO#Xe[[[[[[[[[[[[[[[[[[[[[[[[[[[[[[[[[[[[[[",
"[[[[[[[[[[[[[[[[[[[[[[[[[[[[[[[[[[[[[[[[[[[[[[[[[[[[[[[[[[[[[[['wXo#OOOOOOOO#OOO#OOOOOOoo~[[[[[[[[[[[[[[[[[[[[[[[[[[[[[[[[[[[[[[",
"[[[[[[[[[[[[[[[[[[[[[[[[[[[[[[[[[[[[[[[[[[[[[[[[[[[[[[[[[[[[[[R:.O##OOOOOO#OOOOOOOO#OOOXy[[[[[[[[[[[[[[[[[[[[[[[[[[[[[[[[[[[[[[[",
"[[[[[[[[[[[[[[[[[[[[[[[[[[[[[[[[[[[[[[[[[[[[[[[[[[[[[[[[[[[[[Zoo##OOOO#OOOOOOO#OOOOOOOoO)[[[[[[[[[[[[[[[[[[[[[[[[[[[[[[[[[[[[[[[",
"[[[[[[[[[[[[[[[[[[[[[[[[[[[[[[[[[[[[[[[[[[[[[[[[[[[[[[[[[[[[dXo#OOOOOOOOO#OOOOOO#OOOO#Xj[[[[[[[[[[[[[[[[[[[[[[[[[[[[[[[[[[[[[[[[",
"[[[[[[[[[[[[[[[[[[[[[[[[[[[[[[[[[[[[[[[[[[[[[[[[[[[[[[[[[[[7Xo#OOOOOO#O#OOOOO#O#OOO##o#`[[[[[[[[[[[[[[[[[[[[[[[[[[[[[[[[[[[[[[[[",
"[[[[[[[[[[[[[[[[[[[[[[[[[[[[[[[[[[[[[[[[[[[[[[[[[[[[[[[[[[4.O#OOO#OOOOOOOO#OOOOOO#OOOXz[[[[[[[[[[[[[[[[[[[[[[[[[[[[[[[[[[[[[[[[[",
"[[[[[[[[[[[[[[[[[[[[[[[[[[[[[[[[[[[[[[[[[[[[[[[[[[[[[[[[[e.O#OOOOOOO#OOOOOOO#OOOOOO#o$'[[[[[[[[[[[[[[[[[[[[[[[[[[[[[[[[[[[[[[[[[",
"[[[[[[[[[[[[[[[[[[[[[[[[[[[[[[[[[[[[[[[[[[[[[[[[[[[[[[[[ZXO#OOOOOOOOOO#OOOOOOO#O#OOOXz[[[[[[[[[[[[[[[[[[[[[[[[[[[[[[[[[[[[[[[[[[",
"[[[[[[[[[[[[[[[[[[[[[[[[[[[[[[[[[[[[[[[[[[[[[[[[[[[[[[[`#o#OOOO#OOO#OOOOOO#OOOOOO##o#_[[[[[[[[[[[[[[[[[[[[[[[[[[[[[[[[[[[[[[[[[[",
"[[[[[[[[[[[[[[[[[[[[[[[[[[[[[[[[[[[[[[[[[[[[[[[[[[[[[[[mXOOOOOO#O#OO#OOOOOOOOOOOOO#Xd[[[[[[[[[[[[[[[[[[[[[[[[[[[[[[[[[[[[[[[[[[[",
"[[[[[[[[[[[[[[[[[[[[[[[[[[[[[[[[[[[[[[[[[[[[[[[[[[[[[[[&o#OOOOOOOOOOOO#OOO#OOOOOOOOo~[[[[[[[[[[[[[[[[[[[[[[[[[[[[[[[[[[[[[[[[[[[",
"[[[[[[[[[[[[[[[[[[[[[[[[[[[[[[[[[[[[[[[[[[[[[[[[[[[[[[HXOOO##OOOOO#O#OOO#OOO#OO#OOX5[[[[[[[[[[[[[[[[[[[[[[[[[[[[[[[[[[[[[[[[[[[[",
"[[[[[[[[[[[[[[[[[[[[[[[[[[[[[[[[[[[[[[[[[[[[[[[[[[[[[[2oOOOOOOOOOOOOOOOOOOOOOOOO#OXD[[[[[[[[[[[[[[[[[[[[[[[[[[[[[[[[[[[[[[[[[[[[",
"[[[[[[[[[[[[[[[[[[[[[[[[[[[[[[[[[[[[[[[[[[[[[[[[[[[[[WoOOOOOOOOO#OOOOOO#OOO#OOOO#o#)[[[[[[[[[[[[[[[[[[[[[[[[[[[[[[[[[[[[[[[[[[[[",
"[[[[[[[[[[[[[[[[[[[[[[[[[[[[[[[[[[[[[[[[[[[[[[[[[[[[[eX#OOOOOOO#OOOOOOOOO#OOOOOO#o7[[[[[[[[[[[[[[[[[[[[[[[[[[[[[[[[[[[[[[[[[[[[[",
"[[[[[[[[[[[[[[[[[[[[[[[[[[[[[[[[[[[[[[[[[[[[[[[[[[[[(oo#OOOOO#OOOOO#OOOOOOOOOOOO#Xk[[[[[[[[[[[[[[[[[[[[[[[[[[[[[[[[[[[[[[[[[[[[[",
"[[[[[[[[[[[[[[[[[[[[[[[[[[[[[[[[[[[[[[[[[[[[[[[[[[[[kX#OOOOOOOO#OOOOO#OOOOOOOOOOOoA[[[[[[[[[[[[[[[[[[[[[[[[[[[[[[[[[[[[[[[[[[[[[",
"[[[[[[[[[[[[[[[[[[[[[[[[[[[[[[[[[[[[[[[[[[[[[[[[[[[`$oOOO#OOOOOOOOOOOOOO#O#OOOO#ooH[[[[[[[[[[[[[[[[[[[[[[[[[[[[[[[[[[[[[[[[[[[[[",
"[[[[[[[[[[[[[[[[[[[[[[[[[[[[[[[[[[[[[[[[[[[[[[[[[[[mXOOOOOOOO#OO#OOO#OOOOOOOOOOOOXZ[[[[[[[[[[[[[[[[[[[[[[[[[[[[[[[[[[[[[[[[[[[[[",
"[[[[[[[[[[[[[[[[[[[[[[[[[[[[[[[[[[[[[[[[[[[[[[[[[['$o#OOOOOOOOOOOO#OOO#OO#OOOOOOOo0'`((~~QWRRTRTTTTTTTRRWW~()''[[[[[[[[[[[[[[[[[",
"[[[[[[[[[[[[[[[[[[[[[[[[[[[[[[[[[[[[[[[[[[[[[[[[[[MX#O#OO#OOOO#O#OOOOOOOOOOOO#OOOOO=&$##OOOOoOoOOooOOooOO###$=>27qdmDR[[[[[[[[[[",
"[[[[[[[[[[[[[[[[[[[[[[[[[[[[[[[[[[[[[[[[[[[[[[[[['$o#OOOOOOOOOOOOOOOOOOOOOOOO#OOO#OoOooooooOoOoOoOoOoOoOooOoooooooXXoo;z'[[[[[[[",
"[[[[[[[[[[[[[[[[[[[[[[[[[[[[[[[[[[[[[[[[[[[[[[[[[zX#OOO#OO#OO#OOOO#OOOOOO#OOOOOOOOOO###O##OO###O####OO#######O##OOOO#oo.;R[[[[[[",
"[[[[[[[[[[[[[[[[[[[[[[[[[[[[[[[[[[[[[[[[[[[[[[[[`#o#O#OO#OOOOOOOOOOO#OO#OOOOOOOOO#OO#OOO###OOOOOOOO#O#OOOO##OO#OOOOO###OX+I[[[[[",
"[[[[[[[[[[[[[[[[[[[[[[[[[[[[[[[[[[[[[[[[[[[[[[[[sXOOOOOOOOOO#O#OO#OOOOOO#O#OOOO#OOO#OOOO##OOO#OOOOOOOOO#OO##OOOOOOOO###O#XoR[[[[",
"[[[[[[[[[[[[[[[[[[[[[[[[[[[[[[[[[[[[[[[[[[[[[[[~oo###OOOOOOO#OOOO#OOOOOOOOOOOOO#OOOO#O#O#OOOOOO##OO#OOOOOOOOOOOOOOOOO#OOO#X+([[[",
"[[[[[[[[[[[[[[[[[[[[[[[[[[[[[[[[[[[[[[[[[[[[[[[4o###OOOOO#OOOOOOOOOO#OO#OO#OOOOO#OOOOOOOOOOOOOOOOOOOOOO#OO#OOOOOOO#OOOOO#O#X2[[[",
"[[[[[[[[[[[[[[[[[[[[[[[[[[[[[[[[[[[[[[[[[[[[[[GXOO#OOOOOOOO#OOOOOO#OOOOOOOOOOOOOOO#OO#OOOOO##OOOOO#OO#OO#OOO#OO#OOOOOO#OOOOOXm[[",
"[[[[[[[[[[[[[[[[[[[[[[[[[[[[[[[[[[[[[[[[[[[[['$oOO#OOO#OOOOOOO#OOOOOOOOOO#OOO#OOOOOOOOOOOOOOOOOOOOOOOOOOOOOOOOOOO#O#OOOOOOO#oo~[",
"[[[[[[[[[[[[[[[[[[[[[[[[[[[[[[[[[[[[[[[[[[[[[e.#OO#OOOOO#O#OOOOO#OOOOOOOOOOOO#OOO#OOOO#OOOOOOOOOO#OOOO#OOOO##OOOOOO#O#OOOOO##Xq[",
"[[[[[[[[[[[[[[[[[[[[[[[[[[[[[[[[[[[[[[[[[[[[GXOOOOOOOOO#OOOOOOO#OO#OOO#OO#OOOOOOOOOOOOOO#OOOOOO#OOOOOOOOO#OOOOOOOOOOOOOOOOOO#oo~",
"[[[[[[[[[[[[[[[[[[[[[[[[[[[[[[[[[[[[[[[[[[[(+oOOO#OOOOOOO#OOOOOO#OOO#OOOOOOOOOOOOOOOO#OOOO#OO#OOOO#OOOOOOOO#OOO#OOOOOOOOO#OO##Xz",
"[[[[[[[[[[[[[[[[[[[[[[[[[[[[[[[[[[[[[[[[[[[>X#OOOOOO#OOOOOOO#OOOOOOOOOOO#O#OOOO#O#OOOOOO#OOOOOO#OOOOOO#OOOOOOOOOO#OOO#OOOO####o<",
"[[[[[[[[[[[[[[[[[[[[[[[[[[[[[[[[[[[[[[[[[[q.#OO#OOOOO#OOOOOO#OOOOOO#OOOOOOOOOOOOOOOOOOOOO#OOO#OOOOOO#OOOO#OOOOOO#OOOOOO#OOOOOO#$",
"[[['[[[[[[[[[[[[[[[[[[[[[[[[[[[[[[[[[[[[[iXO#OOOOO#OOOOOO#OOOOOOOOOOOO#OOOOOO#OOOOO#OOO#OOOOOOOOO#OOOO#OOOOOO#OOOO#OO#OOOO#OO#o&",
"[[[~ZNVVNVVVNVNVNVNVNND([[[[[[[[[[[[[[[[wXOOOOOOOOOOOO#OOOOOOOO#OOOO#OOO#OO#OOOOO#OOOOOOOOOOOOOOOOOO#OOOOOOOOOOO#OOOOOO#OOOOOOXV",
"['ioXXXXXXXoXXXXXXXXXXX$v[[[[[[[[[[[[[E1.O##OOOO#OO#OOOO#O#OOOOOO#OOOOOOOOOOOOO#OOO##OOOOOO#O#OOOO#OOOOOO#OOOO#OOOOOOOOOO#OO#X4[",
"[1.oOOOO#OOOOOOO#OOOOOoo.s[[[[[[[[[[RdOXO#OOOOOOOOOOO#OOOOOOOO#OOOOOO#O#OO#OOOOOOOOOOOOOO#O#OOOO#OOOOOO#OOOOOOOOOOOOOOOOO#O#X&_[",
"N.O#OOOO##OOOOOO##OOOO##oXL[[[[[e-<=OXo#OO#OOOO#OOO#OOOOOOO#OOOO#OOOOOOOOOOO#OOO#OOO#OOOOOOOOO#OOOOOOOOOOO#OO#OOOOO##OOOOO#ooW[[",
",o#OOOOOOOOOOOOOOOOOOOOOOXq[[[[[>.ooo#OO#OOOO#OOO#OOOOOOO#OOOOOOOOOOOO#OO#OOOO#OOO#OOOO#OO#OOOOOOOO#OOOO#OOOOOOOOOOOOOOOOOOXN[[[",
"$#OO#OOOOOOOO#OOOOOOOOOOOo2[[[[[4oO##OOOOOOOOOO#OOOOO#OOOOOO#OOOOOO#OOOOOOOO#OOOOOOOOOOOOOOOO#OOOOOOO#OOOOOO#OOO#OOOOOO#OOo2[[[[",
"%#OOOO#OOOO#OOOOOOOOO#OOOo2[[[[[4oOO#OOOO#OOOOOOOOOOOOOO###OOO##OOOOOOOOOOOOOOOOOOOOOOOOOOOOOOO#OOOOOOOOOOOOOOOOOOOOOO#O#OXM[[[[",
"%##OOOOOO#OOOO#OOOO#OOOOOo4[[[[[4oOOOO#OOOOOO#OOOOOOO#OO###OOO###OOOOO#OOOO#O#OOOOOOOOO#OO#O#OO##OOOOOOOOO#OOOOO#OO#OOOOOOod[[[[",
"&##OOOOOOOO#OOOOOOOOOOOOOX2[[[[[4XOO#OOOOOOOOOOO#OO#OOO###OO#OO#OOOOOOOO##O###O#OO#oOo#OOO#OOOoOO#OOOOOoOOoOOO##OOOOO#OOO#o$'[[[",
"&#OOOO#OOOOOO#OO#OOOOOO#Oo4[[[[[4o#OOOOOO#OOOO#OOOOOOOOoooooooo##OooooXooXo###oXXXXooo#O#OX.XXoooo#oO$#oooOo%%##OOOOOOOOOO#Xk[[[",
"&OOOOOOO#OOOOOOOOO#OOOOOOo4[[[[[4oOOOOO#OOOOOOOOO#OOOO>%%$-77t$oO%r838wwuk7o#o,ZvvxFPY7oo&BBzvHKYJ*6$+bYKYY/C+o#OOOOOOO##O#oO~[[",
"&OOOO#OOOOOOOOO#OOOO#OOO#X4[[[[[4oOOOOOOOO#OOO#OOOOOOoi['`'[[Pu-o$p`[[[[[nr:Oo%K[[[[[Ig9o+j[[[[[~uvb+o-I[[[H3i%oO#OOO#OOO###X2[[",
"&OOOOOO#OOOO#OOOO#OOOO#OOo4[[[[[2oO#OOOO#OOOOOOOOO#O##oa[[[[Drv%OO.3[[[U7rl8oOoXl[[[D8v%O#.:'[[[1rlXO#oo~[U:Bp+OOOO#OOO#OOOOOXV[",
"&O#OOOOOOO#OOOOOOOOO#OOOOo4[[[[[4oOOO#OOOOOO#OO#OOOO##o.F[[R7booO#o#'[C6j9Oo#OOo;[[[aa%oO#oO)[[[UqdXOOO.M[jh1XO#OOOOOOOOOOOOOoO)",
"&OOOO#OOOOOO#OOOOOOOOOOOOo4[[[[[4XO#OOOOO#O#OOOOOO#OOOOoF[[IuioOO#.l[D1l&XO#OOOo3[[[zu$o#Oo%_)[[[wj3oOOXd[jaoOOO#OOOOOO#OOOOOOXk",
"&OOOOOOOO#OOOO#OOO#OOOO#Oo4[[[[[4oOO#OOOOOOOOOO#OOOO#OOoF[[TuioO#X;[Y3l+o#OOOOOo3[[[zu&O##o%[zP[[W7zoOOXj[zeoOO#OO#OO#OOOO#OOO#%",
"&OOOOOOOOOOO#OOO#OOOOOOOOo2[[[[[4oOOOO#OOO#OO#OOOOOOOOOoH[[Tuao#o+')6l$o#OOOOOOo3[[[li&o##o$[rz[[[ua7oOXk[leoOOO#OOOOOO#OOOOOOo%",
"&OOOO#OOOO#OOOOOOOOO#OOOOX4[[[[[4oOOOOOOOOOOOOOO#OOOOOooP[[UiaooXR[9g-oOOOOOOO#o7[[[zi%O##o%[jr)[[/7voOXj[jtoOOOOOOOOOOOO#OOOOXx",
"&OO#OOOO#OOOOOO#OOO##OOOOo4[[[[[2oOOOOOOO#OOOO#OOOOOOOOXS[[RraXXV[au1o##OOO####o;'[[vi=oOOo$[z<j[[[drqXot[kao##OOOOOOOOOO###OX>[",
"&oOOOO#OOOOOOOOOO#OOOOOOOo2[[[[[4o#OOOOOOOOOOOOOOOO#OOOXz[[(0y d[[wu=o#OO#OO###o#)[[vu>OO#OO[z4=F[[)3c+Xr[kgOO##OOO##OOOO###X&([",
"&##OOOOOOOO#OOOOOOO#OOO#Oo4[[[[[4X#O#OO#OO#OOOOOO#OOOOO.x[[(02-[[[W8aoOOOOO#OO#O%`[[mu>oOOoO[zq&=[[[zwt r[lgoOOOOOOOOOOO#O#o+~[[",
"&#OOO#OOOOOOO#OOOOOOOOOOOX4[[[[[4oOOOOOOOOOOOO#OOOO#OOOXz[[(>z_[`[[di1oOOOOOOO#o%`[[zi>oOOO#[k02.J[['7coq[zaOOO##OOOOOO#O#ooR[[[",
"&OOOOO#OO#O#OOOOOOOOOOOO#X4[[[[[4oOOOOOO#O#OOOO#OOOOOOOXz[[Q=[`w[[[~rjX##O#O#O#o$_[[vu>O#Oo#[z04.;[[[bw41[laOoOOOOOO#OOOOOXG[[[[",
"&OO#OOOOOOOOOOO#OOO#OOO#Oo4[[[[[4oOO#OO#OOOOOOOOOOO#OOO.v[[(Q'8uZ[[[la1o##OO##Oo$_[[zu>o#Oo#[z04oXZ[[[7ri[zaO#OOO#OOOOOOOXe[[[[[",
"&OOOO#OOOO#O#OOOO#OOOOOOOo2[[[[[2o#OOOOOO#OOOOOOO#OOOOOXz[[[[rc7X/[[(iioOOOO###o%`[[mu>o##O#[kq4oo%'[[C,Y[zdOo##OOOOOOO#ooT[[[[[",
"&OOOOOOOOOOOOOOOOOO##OOOOo4[[[[[4oOOOOOOOOOOO#OOOOO##OOXz[[[jakX.t[[[br,oO#O###o$`[[zu>O##o#[k02o#XM[[[1C[laO+###O#OOOOOOoU[[[[[",
"&OOOOOO##OOOOOO#OOOOOOOOOo4[[[[[4X#OOOOOOOOOO#OOOOOOOOOXm[[(>moOoo~[[`auo#OOO#Oo$_[[zu>o#OO#[Zr<o#o+`[[S7[kg#oOOOOOOOO#OOXm[[[[[",
"&OOOO#OOOOOOOOOO#OOOOOOOOX4[[[[[4oOOOO#OO#OOOOOOOOOOOOOXx[[~0tX##Xr[[[Cu<oOOOO#O%`[[zu>OO#oO[Faqo##Xj[[[F]laOOO#OOO#OOOOOo,[[[[[",
"&OOOOOO#OOO#OOOOOOOOOOOOOo2[[[[[4oOO#OOOOOOOOOOOOOOOOOO.m[[~0sXO#OoQ[[`jro##OO#o$`[[vi>oOOo#[Pguo#Ooo)[[[[laOOOOO#OOOO##OooT[[[[",
"&OOOOOOOOOOOO#OOOOOOOOOOOo4[[[[[4o#OOOOO#O#OOOO#OOOOOOOXk[[`qdoO##Xq[[[Hu1o#OOOo#~[[Ci<oOOo=[Qawo#O#Xu[[[[zi&oOOOOOO#O####Xe[[[[",
"&oOOOOOOOOOO#OO#OOOOOOOOOo4[[[[[4oOOOOOO#OOOOOO#OOOOO##.q[[[wgOO##OoI[['g9oo###Xo~[[bq>oOO.i[[a8o#OOoo~[[[li&oOO#OOOOOO#OOo#([[[",
"&#OOO#OO#OOOOOOOOOO#OOO#Oo2[[[[[4XOOO#OOOO#OO#OOOO#OO#oXD[[[jl#o##o j[[[~Stoo#o+F[[[)PjooX1'[[)n,oOO#Xq[[[vu%OOOOO#OO#OOOO#Xm[[[",
"&OO#OOO#OO#OOO#OO#OOO#OOOo4[[[[[4oOOOOOO#OOOOOO#OOOO#o:~[[[[[!bXOo@C[[[[[[]B:.@H[((RWYPwXwW`((~UB:XOOOoKWP7a&o###OOOOOO#OO#o,[[[",
"&#OOOOOOOOOOOOOOOOOOOOO#OX4[[[[[4oOOOO#OOOOOOOOOO#OO#oqvdisalanloO=CjaiuuaahCg$4007riia^gre007rac/roO#o%aulJ$O##OOOOOOOOO#OoO~[[",
"&OO##OOOO#OOOO#OOOOOOOOOOo2[[[[[2oOOOOOOOOOOOOOOOOOO##o20qqiaab~3oo;jaaaaaaab!w=iisiaiijiwssiisaizeoOOo%auaqoOOOOOOOOOOO###oo~'[",
"&OOOOO#OOOOOOOOOOOOOO#OOOo4[[[[[4oOOO#OOOOO##OOOO#OO#OO<442>>>=&$OO$,=%%%%%%$#=ooooooooXoooooooooXo#OO##oooo##OOOOO##OOO###o,[[[",
"&OOO#OOOOOOOO#OO#OO#OOOOOX4[[[[[4oOOOOOOOOOOOOOOOOOOOOOooOoooOooOO#OoO#oOoOOOooOOO#OOOOOOOOO#OOOOOOOOO##O#OO##O#OOOOOOOO##oXI[[[",
"&OOOOOOOO#OOOOOOOOOOOO#OOo4[[[[[4oOO#O#O#OOOOOO##O#OOOO####OO#OOOOOOO####OOO###O#OOOOOOOOOOOOOOOO#OO#OOOOOO###OO#OOOOOO#OO.k[[[[",
"&OOOOOOO#OOOOOO#OOO#OOOOOo4[[[[[4oOOOOOOOOO#OOOOOOOOOOO#OOOOOOOOOOOOO#OOOOO#OOOOOOOOOO#OOOOO#OO#OOO#OOOOOO#OOO#OOOO#OOO#oXi[[[[[",
"&OOO#OOOOO#OO#OOOOOOOO#OOo4[[[[[4XOO#OOOOOOOOO#OOOO#O#OOOOO#OOO#OOO#OOOOO#OOOO#OOO#OOOOO#OOOOOOOOOOOOO#OOOOOOOOOOOOOOO#OXd[[[[[[",
"&OOOOO#O#OOOOOO##OOOOOOOOo4[[[[[4oOOOOOO#OOOOOOOO#OOOOO#O#OOO#OOOOOOOOOOOOO#OOOOOOOOOOOOOO#OOO#OOOOO#OOOOOOOOOOO#O##O#oXk[[[[[[[",
"&OOOOOOOOOOOOOOOOOOOO#O#OX4[[[[[4oOOOOO#OOOOO#O#OOOOOOOOOOOOOOO#OOOOOOO#OOOOO#OOO#OOOO#OOOOOOOOOO#OOOOOOOO#O#OOOOO###oXv[[[[[[[[",
"&oOOOOOOOOOOOOOOO#OOOOOOOo4[[[[[2oOOOOOOO#OOOOOOOOOOOOOOOOOOOOOOOO#OOOOO#OOOOOO#OOOOOOOOO#OOOO#OOOOOO#O#OOOO#O#OO#OOOok[[[[[[[[[",
"&##OOOOOOOO##OOOOOOO#OOOOo4[[[[[4oOOO#OOOOOO#OOOOOOOO#OOOOOOO#OOOOOO#OOOOOOOOOOOOO#OO#OOOOOOOOOO#OOOOOOOO#OOOOOOOOOOo<[[[[[[[[[[",
"&OOO#OO#OOOOOOOOOOOOOOOOOX2[[[[[4oOOOOOOOOOOOO#O#OO#OOOO#OO#OOOOO#OOOO#OOOOO#OOOOOOOOOO#OOOOO#OOOOOOOO#OOOOOO#OOOOOOXN[[[[[[[[[[",
"&#OOOOOO#OOOOOO#OOO#OOOOOo4[[[[[4oOO#O#OOOO#OOOOOOOOOOO#OOOOOO#OOOOO#OOOOO#OOOOOO#O#OOOOO#OOOOOOOOO#OOOOOO#OOOOOOOOOoD[[[[[[[[[[",
"&OOOO#OOOOOO#OOOOOOOOOOO#o4[[[[[2oOOOOOOO#OOO#OOO#OO#OOOO#OOOOOOOO#OOOOOOOOOOOOOO#OOOOOO#OOOOOO#OOOO#OOOOOOO#OOOOOOOoA[[[[[[[[[[",
"&O#OOOOOO#OOOOOO#OOO#OOOOo2[[[[[4oOOOOO#OOOOOOOOOOOOOOOOOOOO#OO#OOOOOO#OOOOOO#OOOOOOO#OOOO#OO#OOO#OOOOOOO#OOOOOOOOOOXZ[[[[[[[[[[",
"&OOOOO#OOOOOOOO#OO#OOO#OOo4[[[[[4XOOOOOOOOOOOOOOOO#OOOO#OO#OOOOOOOOO#OOO#OO#OOO#OOOOOOOO#OOOOOO#OOOOOOO#OOOOOOO#OOOOXN[[[[[[[[[[",
"&OO#OOOO#O#OOOOO#OOOOOOOOX4[[[[[4oOO#OOOOOO#O#OOOOOOOOOOOOOOOOOOOO#OOOOOOOOOOOOOO#OOOO#OOOOOOOOO#O#OOOOOOO#OOOOOOOOOXM[[[[[[[[[[",
"&OOOO#OOOOOOOO#OOOOOOOOO#X4[[[[[4oOO#OOOO#O#OOOO#OOOOO#O#OOOOOOOOOOOO#O#OOO##OOOOOOOOOOOOOOOOOOOOOOOOO#O#OOOOO#OOO#OXV[[[[[[[[[[",
"&OOOOOOOOOO#OOOOOO#OOOOO#o4[[[[[4oOOOOOOOOOOOO#OOO#OOOOOOO#OOO#OO#OOOOOOOOOOOO#OOO#OO#OOOOO##OOOOOO#OOOOOO#OOOOOOO#oo~[[[[[[[[[[",
"&OOOOOOOO#OOOOOOOOOO#OO#Oo4[[[[[4oO#OOO#OO#OOOOO#OOOOOOO#OOO#OOOOOOOOO#O#OOO#OOO#OOOOOOOOOOOOOOOO#OOOOOO#OOOOOOOOOO.x[[[[[[[[[[[",
"%OOOO#OOOOOOOOOOO#OOOOOOOo2[[[[[4oOOOOO#OOOOO#OOOOOO#OOOOOOOOOOOOOO#OOOOOOOOOOOOOOOO#O#O#OOOOOO#OOOO#OOOOOOO#OOOOOX2'[[[[[[[[[[[",
"$OOOOOOOOOOOOOOOOOOOO#OOOo2[[[[[=.oOO#####O#O#OOOOOO#OOO#OOOO#O#OOOOOO#OOOOOOOOOO#OOOOOO#OOOOOO#OOOOOOOOOOOOOO###X=_[[[[[[[[[[[[",
">o#OOOOOOOOOO#OOOOOOOOOOOXq[[[[[z1$ooXXoooO#OOO#OO##OO#OOOOOOOOO#OO#OOOO#OOO#OOOOOOO#OOOOOOOOOOOOOOOO#OOO#O#OO##X;([[[[[[[[[[[[[",
"N.OOOO#OOOOOOOOOOOOOOOOOoXL[[[[[[[)TDkq>$oXXoooOO#O#OOOOOOOOOO#OOOOOO#OOOOOOOO#OOOOOOOOOOOO##OOO#OO#OOO#####O#oX1)[[[[[[[[[[[[[[",
"[2.oOOOOOOOOOOOOOOOOOOOo.s[[[[[[[[[[[[[[(INd7&OoXXoooOOOOO##OOOOOOOOOOOOOOO##OOOO#OOOOO#OOOOOOOOOOOOOOOO#####oXi[[[[[[[[[[[[[[[[",
"['soXXXXXoXXoXXXXXXoXXX+v[[[[[[[[[[[[[[[[[[[['WHvt<$OXXoooO#OOO#O########O##OOOOOOOOOOOOOOOOOOOOOOO##OOO###o.$A[[[[[[[[[[[[[[[[[",
"[[[~ZNBNNBNNVNNNNNNBNNG)[[[[[[[[[[[[[[[[[[[[[[[[[[[(TAjq>OoXXXooooOooOOOOOO#OOO#O##OO#O##OOOO#O#OOOOOOOoooXot([[[[[[[[[[[[[[[[[[",
"[[[[[[[[[[[[[[[[[[[[[[[[[[[[[[[[[[[[[[[[[[[[[[[[[[[[[[[['(LMsq01>%#OOoooXXXXoooooOoOo##OoOOO#OOoooooXXoo$3zW[[[[[[[[[[[[[[[[[[[[",
"[[[[[[[[[[[[[[[[[[[[[[[[[[[[[[[[[[[[[[[[[[[[[[[[[[[[[[[[[[[[[[[['`~QTIHZZvkdte0022<>>==&&=&&==><20qykNHR)[[[[[[[[[[[[[[[[[[[[[[["
};
