/* XPM */
static char *bitcoin32[] = {
/* columns rows colors chars-per-pixel */
"32 32 240 2 ",
"   c #005A00",
".  c #005B00",
"X  c #005C00",
"o  c #006200",
"O  c #006300",
"+  c DarkGreen",
"@  c #006500",
"#  c #006600",
"$  c #006700",
"%  c #006800",
"&  c #006A00",
"*  c #006B00",
"=  c #006C00",
"-  c #006D00",
";  c #006E00",
":  c #006F00",
">  c #007000",
",  c #007100",
"<  c #007200",
"1  c #007300",
"2  c #007400",
"3  c #007500",
"4  c #007600",
"5  c #007700",
"6  c #047504",
"7  c #067606",
"8  c #007800",
"9  c #007900",
"0  c #007A00",
"q  c #007B00",
"w  c #037903",
"e  c #007C00",
"r  c #007D00",
"t  c #007E00",
"y  c #007F00",
"u  c #017E01",
"i  c #017F01",
"p  c #027C02",
"a  c #027F02",
"s  c #057F05",
"d  c #067C06",
"f  c #0D7B0D",
"g  c #0E7B0E",
"h  c #0D7D0D",
"j  c #0C7E0C",
"k  c #137313",
"l  c #117A11",
"z  c #177817",
"x  c #008000",
"c  c #008100",
"v  c #008200",
"b  c #028002",
"n  c #038003",
"m  c #048104",
"M  c #058305",
"N  c #068206",
"B  c #068306",
"V  c #078207",
"C  c #068406",
"Z  c #088308",
"A  c #098309",
"S  c #098409",
"D  c #0B840B",
"F  c #0B850B",
"G  c #0C830C",
"H  c #0C850C",
"J  c #0F850F",
"K  c #0E860E",
"L  c #0F860F",
"P  c #0E880E",
"I  c #108610",
"U  c #108710",
"Y  c #118711",
"T  c #148114",
"R  c #158615",
"E  c #168416",
"W  c #138813",
"Q  c #158915",
"!  c #158A15",
"~  c #168916",
"^  c #178B17",
"/  c #178C17",
"(  c #188B18",
")  c #1A881A",
"_  c #1A8B1A",
"`  c #198E19",
"'  c #1B8D1B",
"]  c #1C8B1C",
"[  c #1D8B1D",
"{  c #1E8D1E",
"}  c #1E8E1E",
"|  c #1E8F1E",
" . c #228F22",
".. c #2C862C",
"X. c #209020",
"o. c #239023",
"O. c #239123",
"+. c #249024",
"@. c #279027",
"#. c #299229",
"$. c #2B922B",
"%. c #289528",
"&. c #2A942A",
"*. c #2D962D",
"=. c #329632",
"-. c #369536",
";. c #369636",
":. c #389738",
">. c #3E943E",
",. c #389B38",
"<. c #399A39",
"1. c #3A9B3A",
"2. c #3B9A3B",
"3. c #3C983C",
"4. c #3F9D3F",
"5. c #41A141",
"6. c #41A341",
"7. c #43A443",
"8. c #45A145",
"9. c #46A646",
"0. c #4BA44B",
"q. c #51A351",
"w. c #55A455",
"e. c #56A656",
"r. c #51A851",
"t. c #50AA50",
"y. c #52A852",
"u. c #53A853",
"i. c #59A559",
"p. c #5DAB5D",
"a. c #5DAE5D",
"s. c #5DB25D",
"d. c #60AB60",
"f. c #61AD61",
"g. c #60AF60",
"h. c #64AA64",
"j. c #64AE64",
"k. c #66AF66",
"l. c #63B363",
"z. c #66B166",
"x. c #67B367",
"c. c #69B269",
"v. c #6CB16C",
"b. c #6FB06F",
"n. c #6DB76D",
"m. c #72B572",
"M. c #75B675",
"N. c #72B972",
"B. c #77B877",
"V. c #76BB76",
"C. c #77BB77",
"Z. c #79B779",
"A. c #7ABB7A",
"S. c #7DBC7D",
"D. c #7CBE7C",
"F. c #82BC82",
"G. c #89C489",
"H. c #8DC98D",
"J. c #90C490",
"K. c #94C694",
"L. c #91C891",
"P. c #91CA91",
"I. c #96CE96",
"U. c #9ACD9A",
"Y. c #9FCE9F",
"T. c #A4C9A4",
"R. c #A8CCA8",
"E. c #A1D0A1",
"W. c #A0D3A0",
"Q. c #A3D0A3",
"!. c #A3D1A3",
"~. c #A5D0A5",
"^. c #A5D2A5",
"/. c #A6D2A6",
"(. c #A7D3A7",
"). c #ABD1AB",
"_. c #ABD3AB",
"`. c #A9D4A9",
"'. c #AFD5AF",
"]. c #AFD7AF",
"[. c #B0D7B0",
"{. c #B0D8B0",
"}. c #B3D9B3",
"|. c #B3DBB3",
" X c #B4D9B4",
".X c #B5D9B5",
"XX c #B6DAB6",
"oX c #B7DEB7",
"OX c #B8DAB8",
"+X c #BBDEBB",
"@X c #BCDBBC",
"#X c #BDDEBD",
"$X c #BEDEBE",
"%X c #BFDFBF",
"&X c #C1DBC1",
"*X c #C1DCC1",
"=X c #C4DEC4",
"-X c #C7DDC7",
";X c #C0E0C0",
":X c #C2E3C2",
">X c #C8E3C8",
",X c #CAE2CA",
"<X c #C9E4C9",
"1X c #CAE5CA",
"2X c #CCE1CC",
"3X c #CCE3CC",
"4X c #CDE6CD",
"5X c #CFE9CF",
"6X c #D0E4D0",
"7X c #D0E6D0",
"8X c #D0E7D0",
"9X c #D1E8D1",
"0X c #D5EAD5",
"qX c #D9ECD9",
"wX c #DCE9DC",
"eX c #DEECDE",
"rX c #E0EFE0",
"tX c #E3EFE3",
"yX c #E5EEE5",
"uX c #E0F0E0",
"iX c #EBF0EB",
"pX c #EAF3EA",
"aX c #EBF2EB",
"sX c #E8F4E8",
"dX c #EAF4EA",
"fX c #EDF5ED",
"gX c #EFF6EF",
"hX c #F1F6F1",
"jX c #F1F7F1",
"kX c #F0F9F0",
"lX c #F2FAF2",
"zX c #F8FCF8",
"xX c #F9FCF9",
"cX c #FCFEFC",
"vX c #FDFEFD",
"bX c #FFFDFF",
"nX c #FEFEFE",
"mX c #FEFFFE",
"MX c #FFFEFF",
"NX c gray100",
/* pixels */
"NXNXNXNXNXNXNXNXNXNXNXNXNXNXNXNXNXNX`.k >.oXNXNXNXNXNXNXNXNXNXNX",
"NXNXNXNXNXNXNXNXNXNXNXNXNXNXNXNXNXNXD.# & # XXNXNXNXNXNXNXNXNXNX",
"NXNXNXNXNXNXNXNXNXNXNXNXNXNXNXNXNXNXx.# x # X.NXNXNXNXNXNXNXNXNX",
"NXNXNXNXNXNXNXNXNXNXNXNXNXNXNXNXNXNX5.: y q q uXNXNXNXNXNXNXNXNX",
"NXNXNXNXNXNXNXNXNXNXNXNXNXNXNXNXNXNXP 3 y q 3 >XNXNXNXNXNXNXNXNX",
"NXNXNXNXNXNXNXNXNXNXNXNXNXNXNXNXNX+X& y y q q rXNXNXNXNXNXNXNXNX",
"NXNXNXNXNXNXNXNXNXNXNXNXNXNXNXNXNX,.& x y : } NXNXNXNXNXNXNXNXNX",
"NXNXNXNXNXNXNXNXNXNXNXNXNXNXNXNXM.# y y y O G.NXNXNXNXNXNXNXNXNX",
"NXNXNXNXNXNXNXNXNXNXNXNXNXNXNXe.# q x x > J NXNXNXNXNXNXNXNXNXNX",
"NXNXNXNXNXNXNXNXNXNXNXNXNXNX6.X y x x x # H.NXNXNXNXNXNXNXNXNXNX",
"NXNXNXNXNXNXNXNXNXNXNXNXNX%XO q y y y > I NXNXNXNXNXNXNXNXNXNXNX",
"NXNXNXNXNXNXNXNXNXNXNXNXNX6.# y y y y # n.NXNXNXNXNXNXNXNXNXNXNX",
"NXNXNXNXNXNXNXNXNXNXNXNXqX: y y y y y : r.%X}.[.'.[.XX%X6XlXNXNX",
"NXNXNXNXNXNXNXNXNXNXNXNX9.# x y y y y y q > : : : : : > 3 l I.NX",
"NXNXNXNXNXNXNXNXNXNXNX:X& q y y y y y y y q q y y q y q q : O :X",
"NXNXNXNXNXNXNXNXNXNXNXE : x y y y y y y y y y y y y y y y x : ~ ",
"aXT.E.W.E.`.xXNXNXlX3.# x y y y y y y y x y y x y y y y y y > Y ",
"X.O & & & . V.NXa.l : y x y q y y q q y 3 q y 3 q y 3 y x q j 0X",
"j x y y y # t.NXy # x y y N > x y y Z N N N J y y J _ Z y > _ NX",
"I y y y y & f.NX} > y y 3 +.@X,.J 2X:.j ,Xp.) aXq.~ &X@.3 y : V.",
"I y y y y & f.NX` > x x 3 ~ NX&.4.F.7 3 aXf.: NX=X3 D.Z q x > f ",
"I y y y y & a.NX` > y x q G XXXXwX> 3 3 6Xj.y c.tXM.i.J q y > U.",
"J y y y y & f.NX} 3 y y q y 9X`.hXm.# 3 4Xj.C *.s.NXb.N q & l.NX",
"I y y y y & l.NX` > y y q y gX~ ,.NXj # dXx.S J.# hXyX3 q & t.NX",
"J y y y y & f.NX` > x y 3  .wXb.q aXK...*XZ.u.=Xz 8.-Xd q y & >X",
"G y y y y & f.NX} > x x y Y } $.I E -.%.s _ @.I ` > y N y : : 9X",
"I y y y x & a.NX` 3 y y y q 3 3 q 3 3 q q 3 3 q q y q y q 7 }.NX",
"I y y y x & f.NX} > y y y y y y y y y y y y y y y y y y & H.NXNX",
"J y y y y & f.NX` > y x y y y y y y y y y y y y y y y y # /.NXNX",
"f y y y y # t.NXq . : 3 q y y y y y y y y y y y y y y : : ,XNXNX",
"~ O & : & . N.NXL.i.=.S > & # & : > 3 q y y y y q > O : W.NXNXNX",
"dXR./.`.E.'.zXNXNXNXNXhX2X/.A.p.0.,.&. .~ Y J I [ -.h.5XNXNXNXNX"
};
